# xmcd
#
# Track frame offsets:
#	150
#	11291
#	21419
#	32835
#	44391
#	52715
#	62839
#	75241
#	87608
#	99174
#	112698
#	126089
#	139982
#	154091
#	167945
#	178843
#	192903
#	205242
#	218602
#	234707
#	245806
#	257379
#	269078
#	279195
#	288532
#	300527
#	311553
#	322806
#
# Disc length: 4469 seconds
#
# Revision: 1
# Processed by: cddbd v1.5.2PL0 Copyright (c) Steve Scherf et al.
# Submitted via: audiograbber 1.83.01
#
DISCID=8311731c
DTITLE=Various Artist - classic country #4
DYEAR=1900
DGENRE=
TTITLE0=Kitty Wells - Meanwhile Down At Joe's
TTITLE1=Hank Williams - Honky Tonk Blues
TTITLE2=Carl Smith - Hey Joe
TTITLE3=Farn Young - Keeping Up With The Jiones
TTITLE4=Wilburn Brothers - Goody Goody Gumdrops
TTITLE5=George Jones - Let's Invite Them Over
TTITLE6=Loretta Lynn - Blue Kentucky Girl
TTITLE7=Webb Pierce - Oh, So Many Years
TTITLE8=Marty Robbins - Ribbon Of Darkness
TTITLE9=Ray Price - The Other Woman In My Life
TTITLE10=Kitty Wellm and Red Foley - One By One
TTITLE11=Red Sovine - Little Rosa
TTITLE12=Merle Haggard - somewhere In Between
TTITLE13=Porter Wagner - The Last One To Touch Me
TTITLE14=Dolly Parton - I Took Him For Granted
TTITLE15=Gene Watson - Bad Water
TTITLE16=Stonewall Jackson - Smoke Along The Tracks
TTITLE17=Carl and  Pearl Butler - Don't Let Me Cross Over
TTITLE18=Mickey Gilly - A Heartache Tomorrow
TTITLE19=Jerry Lee Lewis - Another Place, Another Time
TTITLE20=Moe Bandy - Don't Anyone Make Love At Home Anymore
TTITLE21=Mel Tillis - Old Faithfulo
TTITLE22=Barbara Mandrell - Do Right Woman
TTITLE23=Nornma Jean - I Wouldn"t Buy A Used Car From Him
TTITLE24=Hank Locklin - It's A Little More Like Heaven
TTITLE25=Charlie Walker - Pick Me Up On Your Way Down
TTITLE26=Charlie Louvin - Less And Less
TTITLE27=Charley Pride - A Whole Lot Of Things To Sing About
EXTD=
EXTT0=
EXTT1=
EXTT2=
EXTT3=
EXTT4=
EXTT5=
EXTT6=
EXTT7=
EXTT8=
EXTT9=
EXTT10=
EXTT11=
EXTT12=
EXTT13=
EXTT14=
EXTT15=
EXTT16=
EXTT17=
EXTT18=
EXTT19=
EXTT20=
EXTT21=
EXTT22=
EXTT23=
EXTT24=
EXTT25=
EXTT26=
EXTT27=
PLAYORDER=
